<svg xmlns="http://www.w3.org/2000/svg" width="744" height="1052" viewBox="0 0 744 1052" version="1.1"><path d="M 342.500 54.615 C 293.734 59.458, 254.946 69.668, 214.065 88.420 C 157.823 114.219, 106.365 155.897, 68.601 206.237 C 42.683 240.788, 20.716 284.498, 8.504 325.821 C 3.839 341.607, 0.003 358.523, 0.073 363 C 0.104 365.012, 1.141 361.717, 2.512 355.247 C 21.571 265.329, 73.163 185.188, 148 129.253 C 172.753 110.753, 211.595 89.605, 240.295 79.003 C 269.003 68.398, 299.768 61.022, 330.500 57.377 C 351.087 54.934, 392.641 54.927, 413.500 57.363 C 486.172 65.847, 551.031 93.076, 609 139.439 C 623.988 151.426, 651.337 178.468, 663.170 193 C 699.251 237.314, 724.276 286.733, 738.052 340.878 C 740.204 349.336, 742.255 358.440, 742.609 361.109 C 743.365 366.811, 745 366.656, 745 360.882 C 745 358.682, 744.624 357.114, 744.165 357.398 C 743.706 357.682, 742.789 354.978, 742.128 351.389 C 740.269 341.300, 732.641 315.568, 726.981 300.295 C 720.168 281.910, 703.119 247.616, 692.727 231.395 C 662.761 184.621, 625.289 146.387, 580.270 116.650 C 530.841 84, 479.512 64.831, 419 56.423 C 408.037 54.899, 352.782 53.593, 342.500 54.615 M 381 163.130 C 330.273 167.596, 242.788 222.873, 222.514 263.267 C 219.144 269.980, 217.270 277.655, 218.327 280.409 C 218.786 281.605, 220.006 281.453, 225.688 279.492 C 243.226 273.441, 262.414 273.587, 301.500 280.070 C 320.758 283.264, 325.368 284.536, 322.996 286.003 C 320.138 287.769, 312.405 287.996, 306 286.502 C 286.174 281.879, 284.476 281.660, 279.873 283.129 C 275.720 284.455, 275.514 284.700, 275.785 287.990 C 275.944 289.934, 277.590 293.662, 279.535 296.486 C 282.754 301.160, 283.836 304, 282.398 304 C 282.067 304, 276.462 301.495, 269.943 298.432 C 261.860 294.636, 256.326 292.683, 252.545 292.292 C 247.154 291.736, 247 291.789, 247 294.202 C 247 296.780, 249.139 298.999, 269.200 317.232 C 291.560 337.552, 302.046 356.689, 302.199 377.455 C 302.252 384.606, 301.360 390.706, 296.856 414 C 293.446 431.633, 274.599 449.863, 252 457.385 C 231.158 464.323, 210.803 462.396, 195.264 452.016 C 187.347 446.727, 185.534 444.602, 177.500 431.188 C 173.650 424.759, 169.874 419.500, 169.109 419.500 C 167.423 419.500, 157.517 441.531, 153.145 455 C 148.893 468.103, 146.276 481.983, 144.944 498.500 C 143.871 511.808, 144.138 529.202, 146.483 599.095 C 148.132 648.230, 161.634 693.983, 184.819 729 C 207.681 763.530, 240.304 790.739, 285.500 812.972 C 313.963 826.974, 327.758 831.306, 336.707 829.052 C 346.002 826.712, 350.917 821.055, 356.600 806.158 C 364.027 786.689, 366.651 785.388, 379.270 794.914 C 387.413 801.061, 394.522 803.979, 401.382 803.990 C 406.977 804, 407.471 803.792, 411.530 799.733 C 417.416 793.847, 418.726 788.776, 416.593 780.133 C 414.696 772.446, 411.949 767.537, 404.082 757.776 C 397.751 749.920, 388.024 741.534, 381.299 738.134 C 378.989 736.965, 370.637 733.807, 362.739 731.115 C 340.801 723.637, 332.628 718.988, 327.860 711.274 L 325.609 707.632 329.555 704.566 C 331.725 702.880, 335.863 699.206, 338.750 696.402 C 343.168 692.112, 344 690.733, 344 687.703 C 344 680.718, 337.144 677.738, 311.148 673.426 C 271.494 666.848, 244.176 651.097, 223.450 622.858 C 217.380 614.588, 216.805 614.093, 212.522 613.451 C 208 612.773, 208 612.773, 208 608.288 C 208 602.341, 210.570 597.173, 214.445 595.325 C 218.018 593.621, 219.180 593.949, 239.699 602.448 C 255.989 609.195, 262.637 610.385, 278.500 609.396 C 297.413 608.216, 309.249 608.526, 321.057 610.512 C 346.057 614.715, 374.061 609.360, 386.357 598.025 C 392.357 592.495, 394.504 586.808, 394.485 576.500 C 394.449 556.721, 384.744 545.496, 364 541.239 C 356.014 539.601, 350.225 539.974, 328 543.559 C 316.761 545.371, 308.742 544.859, 295.705 541.495 C 278.683 537.102, 248.863 531.804, 245.067 532.498 C 239.201 533.569, 233.622 537.511, 227.788 544.705 C 220.833 553.281, 217.787 556.317, 211.339 561.102 C 207.650 563.839, 205.435 566.501, 203.575 570.432 C 199.879 578.245, 194 599.314, 194 604.747 C 194 607.269, 193.809 609.142, 193.575 608.908 C 193.341 608.674, 192.200 603.762, 191.039 597.991 C 186.983 577.833, 187.314 563.179, 192.046 553.405 C 194.383 548.578, 198.775 543.847, 211.417 532.537 C 221.886 523.172, 227.089 515.608, 230.509 504.782 C 231.877 500.451, 233.650 495.645, 234.447 494.102 C 235.910 491.273, 242.396 485, 243.859 485 C 244.292 485, 243.550 488.263, 242.209 492.250 C 239.191 501.221, 239.622 509.179, 243.604 518.052 C 246.085 523.580, 246.507 524, 249.582 524 C 252.207 524, 253.162 523.432, 254.202 521.250 C 256.018 517.443, 259.386 517.325, 274.755 520.533 C 290.132 523.743, 310.375 524.892, 318.852 523.036 C 346.364 517.013, 360 491.666, 351.105 463.087 C 350.007 459.561, 347.436 454.246, 345.392 451.278 C 341.739 445.975, 341.708 445.849, 343.587 444.026 C 344.639 443.006, 348.195 441.050, 351.490 439.679 C 354.784 438.309, 357.898 436.524, 358.410 435.712 C 359.832 433.457, 357.510 428.931, 351.280 421.818 C 344.082 413.599, 341.537 407.917, 337.342 390.689 C 335.442 382.885, 332.588 372.412, 331 367.415 C 326.109 352.023, 326.053 338.731, 330.834 328.155 L 332.486 324.500 332.759 329 C 333.262 337.281, 335.033 347.164, 336.535 350.067 C 338.102 353.099, 341.834 357, 343.166 357 C 344.791 357, 347.300 351.713, 351.511 339.412 C 357.767 321.137, 364.372 312.518, 379.681 302.656 C 390.308 295.810, 393.625 294.388, 418.482 286.027 C 431.291 281.718, 442.723 277.684, 443.886 277.061 C 446.042 275.907, 446.749 271.726, 445.200 269.289 C 441.208 263.007, 418.972 263.846, 388.947 271.412 C 381.551 273.275, 375.329 274.636, 375.120 274.436 C 374.911 274.237, 383.461 269.803, 394.120 264.583 C 422.347 250.762, 424.362 248.910, 427.712 233.724 C 430.061 223.075, 430.089 195.402, 427.759 187.876 C 421.894 168.933, 406.659 160.870, 381 163.130 M 373 165.510 C 328.859 173.899, 264.127 212.514, 234.755 247.979 C 225.765 258.835, 220.912 267.857, 220.227 274.992 L 219.752 279.936 225.161 278.035 C 240.973 272.477, 266.685 272.624, 300.974 278.467 C 312.785 280.480, 323.022 282.604, 323.724 283.186 C 325.867 284.965, 325.159 286.749, 321.851 287.902 C 316.924 289.620, 310.340 289.210, 299.498 286.512 C 288.693 283.823, 282.052 283.367, 278.828 285.092 C 276.121 286.541, 276.934 290.764, 280.887 295.787 C 284.320 300.148, 285.955 306, 283.741 306 C 282.961 306, 277.664 303.722, 271.971 300.938 C 257.979 294.095, 248 291.638, 248 295.035 C 248 295.487, 252.149 299.601, 257.219 304.178 C 280.740 325.410, 288.646 334.129, 295.376 346.263 C 304.134 362.052, 305.586 374.163, 301.534 397.617 C 297.258 422.368, 293.827 430.199, 282.614 440.804 C 259.854 462.329, 225.229 469.100, 200.405 456.878 C 190.468 451.987, 184.395 445.792, 176.638 432.637 C 172.865 426.237, 169.573 421, 169.324 421 C 169.075 421, 167.045 424.937, 164.814 429.750 C 151.895 457.613, 147.295 476.711, 146.327 506.500 C 145.683 526.300, 147.552 602.889, 149.035 617.500 C 156.958 695.566, 190.409 752.086, 252.778 792.791 C 271.575 805.059, 305.841 821.957, 320.932 826.401 C 332.949 829.939, 342.574 827.501, 348.223 819.486 C 350.018 816.939, 353.611 809.600, 356.207 803.178 C 363.490 785.157, 366.125 784.246, 381.407 794.463 C 394.845 803.447, 401.675 805.062, 408.010 800.750 C 414.037 796.648, 415.505 793.677, 415.458 785.673 C 415.394 774.877, 410.512 766.141, 396.762 752.216 C 392.806 748.210, 387.414 743.549, 384.781 741.859 C 382.147 740.169, 371.862 735.934, 361.925 732.447 C 338.024 724.060, 331.981 720.517, 326.231 711.524 L 323.690 707.548 328.082 704.024 C 336.549 697.230, 343 690.347, 343 688.107 C 343 682.426, 333.726 678.402, 313.917 675.489 C 272.874 669.454, 242.085 651.931, 221.688 623 C 216.540 615.698, 216.280 615.492, 211.825 615.200 C 207.249 614.901, 207.249 614.901, 206.735 610.342 C 206.058 604.331, 207.541 599.306, 211.017 595.829 C 215.262 591.584, 218.926 592.061, 234.959 598.947 C 256.463 608.184, 257.439 608.352, 285.026 607.558 C 304.758 606.990, 310.150 607.153, 318.456 608.569 C 326.088 609.870, 331.814 610.130, 343.429 609.702 C 364.376 608.931, 376.382 605.298, 385.373 597.010 C 391.501 591.362, 393.371 585.615, 392.816 574.140 C 392.454 566.668, 391.935 564.634, 388.977 559.096 C 380.879 543.933, 363.832 539.170, 334.966 544.006 C 319.251 546.639, 306.716 546.353, 295.691 543.110 C 283.140 539.418, 251.836 533.796, 246.302 534.239 C 239.442 534.789, 235.165 537.857, 227 548.086 C 223.386 552.612, 217.738 558.205, 214.280 560.681 C 209.293 564.250, 207.454 566.363, 205.005 571.338 C 200.420 580.652, 195.020 601.132, 195.009 609.250 C 195.004 613.077, 194.567 616, 194 616 C 193.450 616, 193 615.782, 193 615.515 C 193 615.249, 191.611 608.161, 189.913 599.765 C 187.224 586.470, 186.871 582.887, 187.179 572 C 187.709 553.235, 189.623 549.924, 210.799 531.137 C 221.425 521.711, 225.135 516.099, 229.600 502.701 C 232.266 494.700, 234.065 491.002, 236.454 488.613 C 239.704 485.363, 246.739 481.405, 247.648 482.315 C 247.916 482.582, 246.902 485.208, 245.397 488.151 C 241.538 495.689, 240.921 507.152, 243.941 515.159 C 245.115 518.271, 246.712 521.346, 247.490 521.992 C 249.525 523.680, 252.699 522.335, 253.416 519.479 C 254.354 515.743, 257.606 515.556, 272.200 518.401 C 292.479 522.354, 300.727 523.274, 309.813 522.598 C 324.106 521.533, 333.824 517.276, 341.840 508.566 C 348.711 501.099, 351.340 494.309, 351.823 482.780 C 352.352 470.144, 350.223 461.070, 344.886 453.213 C 342.751 450.071, 341.004 446.782, 341.002 445.905 C 340.999 443.570, 343.711 441.495, 350.750 438.446 C 359.480 434.664, 359.287 432.908, 348.871 421.340 C 342.964 414.780, 340.113 407.950, 334.975 388.051 C 332.340 377.848, 329.215 366.125, 328.030 362 C 324.369 349.257, 326.209 330.733, 332.005 322 C 333.798 319.298, 334.968 322.913, 334.985 331.201 C 335.005 341.306, 336.596 348.366, 339.678 352.029 C 341.053 353.663, 342.526 355, 342.952 355 C 344.036 355, 348.365 344.848, 350.841 336.500 C 356.057 318.906, 369.483 304.879, 390.955 294.589 C 395.004 292.648, 408.575 287.642, 421.113 283.462 C 439.469 277.344, 444.035 275.465, 444.559 273.815 C 445.508 270.824, 442.120 267.951, 436.382 266.879 C 427.243 265.172, 400.137 269.340, 377.506 275.933 C 360.376 280.924, 363.155 278.597, 390.688 264.900 C 416.362 252.127, 421.206 248.741, 423.820 241.745 C 427.071 233.042, 428.222 222.689, 427.793 206 C 427.451 192.700, 427.063 189.657, 425.054 184.559 C 421.928 176.624, 415.273 170.003, 407.441 167.036 C 399.834 164.154, 383.861 163.447, 373 165.510 M 80.218 271.639 C 74.968 274.265, 69.447 283.813, 64.688 298.500 C 56.222 324.621, 56.492 338.957, 65.600 346.953 C 68.530 349.526, 69.881 349.997, 74.285 349.978 C 80.168 349.953, 84.599 348.183, 93.965 342.112 C 101.555 337.193, 101.965 336.666, 101.985 331.785 C 101.996 329.013, 101.462 327.782, 99.877 326.934 C 98.081 325.973, 96.316 326.517, 88.401 330.472 C 83.232 333.055, 78.031 335.001, 76.774 334.823 C 74.695 334.528, 74.516 334.027, 74.692 329 C 75.052 318.662, 84.286 292.262, 87.201 293.234 C 87.874 293.458, 89.858 296.400, 91.609 299.770 C 96.205 308.619, 98.521 311.545, 102.381 313.377 C 107.801 315.949, 109.003 315.562, 108.983 311.250 C 108.955 305.220, 106.362 294.648, 103.551 289.100 C 100.374 282.830, 89.428 271.245, 86 270.524 C 84.625 270.235, 82.023 270.737, 80.218 271.639 M 78.028 275.126 C 73.813 279.340, 69.954 287.291, 65.710 300.500 C 61.016 315.108, 59.624 322.730, 60.243 330.442 C 60.875 338.315, 63.435 343.764, 67.898 346.737 C 73.885 350.725, 79.789 349.474, 91.415 341.755 C 95.769 338.865, 99.772 335.782, 100.312 334.905 C 101.684 332.676, 100.329 328, 98.312 328 C 97.404 328, 92.463 330.098, 87.332 332.661 C 79.176 336.737, 77.689 337.179, 75.502 336.183 C 73.360 335.207, 73 334.380, 73 330.438 C 73 320.906, 81.268 295.326, 85.251 292.536 C 88.037 290.586, 89.313 291.692, 93.215 299.440 C 96.835 306.628, 99.385 310.061, 102.334 311.715 C 106.238 313.904, 107 313.314, 107 308.105 C 107 297.265, 100.208 283.621, 90.644 275.250 C 85.800 271.010, 82.179 270.975, 78.028 275.126 M 418.500 312.355 C 406.014 316.461, 398.725 323.784, 400.417 330.524 C 401.073 333.141, 409.073 337.426, 419.110 340.538 C 424.720 342.277, 424.720 342.277, 430.045 339.389 C 436.907 335.665, 445.925 327.425, 447.647 323.302 C 449.433 319.028, 447.911 315.680, 443.111 313.324 C 438.507 311.063, 424.148 310.498, 418.500 312.355 M 422.344 312.981 C 410.641 315.467, 402 322.014, 402 328.396 C 402 331.589, 402.328 331.872, 410.250 335.503 C 422.332 341.041, 425.122 341.116, 432.617 336.103 C 440.349 330.932, 447 323.799, 447 320.677 C 447 318.230, 445.147 316.109, 441.244 314.090 C 438.209 312.520, 427.476 311.890, 422.344 312.981 M 196 320.702 C 193.175 321.726, 187.822 327.499, 185.525 332 C 180.544 341.759, 176.950 357.889, 175.444 377.250 C 174.763 386, 174.763 386, 177.297 386 C 179.009 386, 181.076 384.623, 183.666 381.756 C 191.671 372.895, 197.035 368.023, 201.029 365.985 C 207.600 362.633, 218.996 360.157, 233.272 358.980 C 263.850 356.460, 268.003 355.353, 267.996 349.724 C 267.984 338.991, 248.355 327.079, 221.560 321.544 C 214.398 320.065, 199.144 319.562, 196 320.702 M 196.450 322.334 C 189.869 325.357, 184.346 335.039, 181.008 349.403 C 178.622 359.674, 176.740 375.163, 177.169 381 L 177.500 385.500 186.500 376.352 C 192.196 370.562, 197.462 366.224, 200.845 364.537 C 208.414 360.761, 220.713 358.369, 241.500 356.631 C 251.400 355.803, 260.965 354.603, 262.756 353.963 C 272.857 350.355, 263.258 338.127, 243.838 329.863 C 227.849 323.059, 203.347 319.166, 196.450 322.334 M 121 338.703 C 121 344.382, 143.798 366.236, 156.781 373.003 C 162.361 375.911, 165.020 375.368, 166.590 371 C 172.824 353.655, 157.101 339.758, 128.510 337.341 C 121.459 336.745, 121 336.829, 121 338.703 M 123.045 341.093 C 127.545 349.532, 156.904 374, 162.531 374 C 164.471 374, 166 369.196, 166 363.103 C 166 358.261, 165.510 356.624, 163.042 353.217 C 157.549 345.634, 145.074 340.353, 130.131 339.285 C 121.762 338.686, 121.762 338.686, 123.045 341.093 M 0.272 362 C 0.272 364.475, 0.467 365.488, 0.706 364.250 C 0.944 363.012, 0.944 360.988, 0.706 359.750 C 0.467 358.512, 0.272 359.525, 0.272 362 M 419.059 364.172 C 413.396 367.140, 410.914 370.586, 410.260 376.386 C 409.748 380.924, 409.787 381, 412.620 381 C 414.204 381, 420.900 380.121, 427.500 379.048 C 434.100 377.974, 442.538 376.787, 446.250 376.410 C 453.609 375.662, 454.261 374.873, 450.976 370.697 C 447.625 366.437, 439.158 362.927, 430.847 362.353 C 424.494 361.913, 422.899 362.160, 419.059 364.172 M 423.836 363.971 C 417.128 365.227, 413.355 369.019, 411.621 376.250 C 410.991 378.881, 411.126 379, 414.731 378.997 C 416.804 378.995, 422.550 378.283, 427.500 377.415 C 432.450 376.547, 440.030 375.536, 444.345 375.168 L 452.190 374.500 450.149 371.911 C 445.954 366.589, 432.132 362.419, 423.836 363.971 M 223.402 374.987 C 206.278 377.533, 193.465 386.589, 186.597 401 C 183.744 406.989, 183.500 408.326, 183.500 418 C 183.500 427.476, 183.773 429.056, 186.300 434.203 C 190.336 442.421, 197.457 448.474, 206.224 451.137 C 215.110 453.836, 227.847 453.395, 239.312 449.991 C 246.996 447.710, 247.099 447.636, 246.801 444.589 L 246.500 441.500 234.071 440.814 C 222.574 440.179, 221.112 439.865, 214.571 436.625 C 210.682 434.698, 205.700 431.272, 203.500 429.010 C 199.500 424.898, 199.500 424.898, 199.529 416.699 C 199.554 409.817, 199.980 407.697, 202.186 403.500 C 208.418 391.640, 216.849 388.498, 234.500 391.457 C 247.179 393.582, 250.712 393.484, 251.505 390.984 C 252.467 387.955, 250.235 382.375, 246.959 379.619 C 241.983 375.432, 232.693 373.605, 223.402 374.987 M 218 377.591 C 199.921 382.390, 188.384 394.303, 184.977 411.688 C 183.523 419.105, 184.726 427.731, 188.178 434.642 C 194.452 447.204, 209.592 453.606, 227.007 451.059 C 238.237 449.417, 245.500 446.804, 245.500 444.405 C 245.500 442.670, 244.432 442.449, 233.500 441.926 C 219.846 441.273, 215.691 440.016, 206.973 433.900 C 199.232 428.470, 196.516 423.230, 197.260 415.164 C 198.212 404.847, 203.984 395.137, 211.479 391.246 C 215.933 388.933, 227.155 388.569, 237.500 390.400 C 250.127 392.636, 250 392.656, 250 388.400 C 250 383.861, 245.177 378.698, 239.453 377.109 C 234.074 375.615, 224.646 375.827, 218 377.591 M 404.314 390.950 C 396.069 395.977, 397.630 406.311, 407.060 409.136 C 409.234 409.788, 411.255 410.078, 411.551 409.782 C 411.848 409.486, 411.570 407.179, 410.935 404.656 C 410.081 401.266, 410.070 399.239, 410.890 396.886 C 411.501 395.134, 412 392.644, 412 391.351 C 412 388.364, 408.826 388.199, 404.314 390.950 M 406.213 391.507 C 399.863 394.266, 398.715 402.586, 404.159 406.399 C 408.577 409.493, 409.597 408.613, 409.546 401.750 C 409.521 398.313, 409.886 394.262, 410.358 392.750 C 411.331 389.635, 410.852 389.491, 406.213 391.507 M 419.500 393.945 C 415.126 395.736, 411.743 402.731, 414.260 404.782 C 416.567 406.661, 423.067 407.925, 425.557 406.978 C 430.314 405.170, 429.521 396.470, 424.385 394.130 C 423.022 393.508, 421.815 393.029, 421.703 393.063 C 421.591 393.098, 420.600 393.495, 419.500 393.945 M 417.073 397.635 C 413.994 401.548, 414.416 403.652, 418.553 405.018 C 420.507 405.662, 423.207 405.914, 424.553 405.576 C 426.550 405.075, 427 404.335, 427 401.552 C 427 395.094, 420.949 392.707, 417.073 397.635 M 208.034 403.752 C 201.542 407.026, 198.991 415.215, 202.406 421.817 C 204.269 425.420, 211.265 429.844, 216.424 430.681 C 219.780 431.226, 220 431.097, 220 428.581 C 220 427.107, 219.291 424.530, 218.425 422.854 C 216.673 419.467, 216.289 412.712, 217.480 406.250 C 218.263 402, 218.263 402, 214.882 402.002 C 213.022 402.002, 209.940 402.790, 208.034 403.752 M 212 403.641 C 208.023 404.981, 205.766 406.643, 203.966 409.555 C 200.583 415.029, 201.791 420.431, 207.469 425.209 C 209.696 427.083, 218.061 430.272, 218.804 429.530 C 219.059 429.274, 218.251 426.345, 217.008 423.021 C 214.829 417.194, 214.731 415.079, 216.198 405.538 C 216.509 403.518, 214.738 402.718, 212 403.641 M 222.747 410.984 C 215.981 416.306, 220.905 427.069, 228.939 424.519 C 233.287 423.140, 235.630 413.773, 232.429 410.571 C 230.267 408.410, 225.776 408.602, 222.747 410.984 M 226 410.709 C 219.238 413.196, 219.496 423.033, 226.321 422.985 C 229.062 422.965, 230.395 422.081, 231.850 419.316 C 233.606 415.981, 233.231 413.276, 230.777 411.557 C 228.397 409.890, 228.284 409.870, 226 410.709 M 440.500 419.043 C 428 422.254, 420.496 422.661, 413.409 420.511 C 407.284 418.653, 407 418.654, 407 420.535 C 407 424.854, 416.153 432.183, 423.061 433.395 C 430.704 434.736, 444.215 430.262, 451.296 424.045 C 455.203 420.614, 456.058 417.620, 453.418 416.607 C 452.548 416.273, 451.761 416.049, 451.668 416.109 C 451.576 416.168, 446.550 417.489, 440.500 419.043 M 442.500 420.078 C 428.062 423.991, 418.265 424.421, 410.750 421.473 C 408.157 420.455, 408.626 422.354, 411.737 425.464 C 415.786 429.513, 421.348 432, 426.355 432 C 435.674 432, 450.031 425.547, 452.983 420.031 C 453.932 418.258, 453.780 418.011, 451.785 418.090 C 450.528 418.140, 446.350 419.034, 442.500 420.078 M 491.442 424.885 C 477.827 430.523, 464.695 435.128, 452.703 438.469 C 449.514 439.357, 446.669 440.699, 446.380 441.451 C 444.701 445.827, 457.301 458.067, 469.925 464.324 C 477.626 468.142, 479.014 468.500, 486.101 468.500 C 492.366 468.500, 494.395 468.103, 496.677 466.429 C 499.913 464.056, 503.514 457.493, 505.072 451.129 C 505.709 448.528, 507.337 445.666, 509.091 444.064 C 517.598 436.294, 521.351 425.351, 517 421 C 513.409 417.409, 507.221 418.350, 491.442 424.885 M 506.500 420.686 C 505.400 420.984, 497.525 424.064, 489 427.531 C 480.475 430.998, 468.550 435.277, 462.500 437.040 C 445.627 441.958, 446.549 441.419, 448.695 445.109 C 453.493 453.357, 468.438 463.596, 480.171 466.674 C 485.818 468.155, 487.341 468.215, 491.057 467.101 C 497.103 465.290, 500.577 461.134, 503.083 452.720 C 504.424 448.219, 506.190 444.679, 507.903 443.058 C 515.285 436.075, 519.540 426.370, 516.818 422.727 C 515.425 420.863, 509.890 419.768, 506.500 420.686 M 619.626 456.197 C 619.321 460.214, 618.819 470.925, 618.510 480 C 617.025 523.706, 614.475 532.668, 597.025 555.522 C 592.061 562.023, 588 567.915, 588 568.614 C 588 569.314, 593.519 572.586, 600.265 575.885 C 614.691 582.940, 622.576 589.498, 630.179 600.765 C 655.448 638.212, 653.794 687.476, 625.361 744.260 C 610.111 774.717, 586.479 808.287, 564.052 831.352 C 551.501 844.260, 543.316 850.663, 532.500 856.037 C 522.643 860.935, 513.376 863.324, 493.710 866.038 C 469.639 869.360, 454.881 873.099, 440.177 879.601 C 435.738 881.564, 434.908 882.331, 435.177 884.226 C 435.734 888.149, 441.412 889.259, 458 888.690 C 475.101 888.104, 492.086 885.327, 526.493 877.491 C 564.927 868.739, 573.024 865.396, 583.082 854.126 C 593.217 842.771, 628.809 787.973, 650.717 749.997 C 681.195 697.164, 691.559 657.917, 682.164 630.913 C 678.632 620.763, 665.865 601.977, 643.676 574.280 C 632.886 560.811, 632.857 560.760, 634.176 557.635 C 636.344 552.502, 635.733 520.886, 633.072 500.500 C 629.370 472.133, 624.367 450.289, 621.340 449.280 C 620.563 449.021, 619.998 451.300, 619.626 456.197 M 620.602 469.622 C 619.587 496.487, 618.060 515.815, 616.433 522.379 C 614.001 532.187, 607.797 543.900, 598.670 555.911 C 593.902 562.187, 590 567.824, 590 568.438 C 590 569.052, 593.038 570.866, 596.750 572.467 C 618.829 581.994, 632.360 596.140, 641.955 619.728 C 661.159 666.937, 644.094 729.668, 593.186 799 C 571.049 829.149, 551.310 848.390, 533.291 857.385 C 523.595 862.225, 514.797 864.491, 494 867.504 C 472.514 870.617, 458.442 873.936, 446 878.825 C 435.190 883.073, 434.049 884.863, 441 886.670 C 453.540 889.929, 480.324 886.498, 528.942 875.406 C 562.500 867.750, 570.541 864.606, 579.455 855.654 C 593.581 841.469, 644.231 761.580, 663.240 723.500 C 684.715 680.482, 689.547 646.894, 677.522 624.243 C 672.564 614.904, 659.489 596.507, 644.149 577.286 L 631.209 561.071 632.714 556.786 C 633.947 553.274, 634.117 548.706, 633.654 531.500 C 633.117 511.504, 631.980 500.171, 628.455 479.650 C 626.729 469.605, 623.285 455.332, 622.058 453.139 C 621.628 452.372, 620.973 459.789, 620.602 469.622 M 454 506.522 C 454 513.223, 467.267 522.233, 491.538 532.015 C 514.562 541.295, 518.071 544.148, 526.857 560.735 C 530.327 567.286, 532.005 569.500, 533.500 569.500 C 535.209 569.500, 535.544 568.732, 535.803 564.216 C 536.054 559.850, 535.501 557.679, 532.618 551.716 C 528.474 543.146, 521.031 533.645, 515.489 529.851 C 511.032 526.799, 506.008 524.868, 488.500 519.478 C 474.657 515.216, 472.908 514.400, 464.782 508.419 C 457.820 503.293, 454 502.621, 454 506.522 M 455.545 507.250 C 457.446 513.543, 469.957 521.753, 489.671 529.645 C 515.166 539.850, 519.591 543.297, 527.579 559.173 C 532.407 568.768, 533.538 570.031, 534.523 566.928 C 536.247 561.496, 530.887 548.889, 522.563 538.798 C 515.841 530.648, 509.927 527.515, 490 521.543 C 476.393 517.465, 473.420 516.171, 465.658 510.949 C 460.794 507.677, 456.377 505, 455.840 505 C 455.294 505, 455.164 505.990, 455.545 507.250 M 129.650 509.109 C 117.690 510.968, 104.413 522.325, 96.294 537.639 C 91.160 547.323, 85.699 563.414, 83.444 575.500 C 81.233 587.346, 81.912 609.285, 84.928 623.500 C 92.408 658.755, 111.530 711.174, 136.909 766 C 151.836 798.246, 163.452 816.387, 179.500 832.519 C 191.060 844.139, 206.759 855.283, 210.894 854.803 C 221.421 853.580, 205.676 821.988, 155.176 743 C 131.691 706.268, 131.421 705.790, 124.922 689.467 C 102.919 634.208, 95.153 589.709, 103.394 566.113 C 107.180 555.272, 112.755 545.558, 122.803 532.290 C 133.984 517.527, 137.913 510.092, 135.250 508.736 C 134.838 508.526, 132.317 508.694, 129.650 509.109 M 125.844 511.394 C 107.601 517.910, 92.936 539.621, 85.920 570.500 C 83.046 583.148, 82.803 603.705, 85.357 618 C 89.932 643.600, 102.503 681.739, 120.790 725.500 C 148.692 792.268, 165.792 820.623, 190 840.257 C 199.609 848.051, 210.394 854.493, 212.085 853.448 C 212.787 853.014, 212.988 851.327, 212.616 848.998 C 210.672 836.846, 191.267 802.172, 152.173 741 C 131.265 708.283, 127.321 700.799, 118.691 677.469 C 104.694 639.626, 96.693 601.756, 98.522 582.005 C 99.937 566.728, 106.602 551.307, 118.621 535.500 C 136.655 511.782, 138.081 507.023, 125.844 511.394 M 424.500 634.131 C 407.767 638.665, 387.979 642.671, 373 644.557 C 362.232 645.913, 354.846 646.142, 336.500 645.685 C 312.396 645.085, 305.324 644.313, 269.659 638.384 C 249.683 635.064, 247.682 634.890, 246.226 636.346 C 244.770 637.802, 244.799 638.120, 246.567 640.077 C 249.160 642.947, 256.716 646.688, 266.824 650.107 C 312.935 665.706, 389.900 662.613, 427.714 643.642 C 440.481 637.236, 443.583 634.962, 442.698 632.656 C 441.788 630.285, 437.376 630.642, 424.500 634.131 M 419.199 637.017 C 363.984 651.004, 333.773 651.312, 262 638.618 C 253.389 637.095, 248.138 636.576, 247.500 637.185 C 244.773 639.787, 259.407 647.042, 276.086 651.356 C 315.360 661.516, 360.363 661.371, 403.048 650.948 C 420.582 646.667, 445.454 633.973, 439.438 632.376 C 438.922 632.239, 429.814 634.328, 419.199 637.017 M 0.476 691.576 C 1.456 704.596, 12.214 740.813, 22.079 764.302 C 36.126 797.749, 53.922 827.559, 77.417 857 C 89.018 871.537, 117.167 900.015, 131.307 911.520 C 192.958 961.684, 263.286 990.252, 341.963 997.092 C 358.729 998.549, 402.086 997.703, 417.679 995.614 C 470.390 988.551, 515.442 973.455, 559.978 947.933 C 607.931 920.454, 652.575 879.302, 684.123 833.500 C 710.116 795.762, 730.107 751.217, 739.995 709 C 741.734 701.575, 743.571 694.719, 744.078 693.764 C 745.255 691.547, 745.305 684.265, 744.135 685.550 C 743.659 686.072, 742.728 689.425, 742.065 693 C 735.763 726.996, 720.646 768.250, 702.595 800.712 C 641.493 910.600, 533.683 981.868, 408.500 995.124 C 380.131 998.128, 335.739 996.305, 305.685 990.903 C 226.578 976.683, 151.791 935.910, 97.063 877.164 C 48.220 824.735, 16.843 763.995, 1.412 692 L 0.018 685.500 0.476 691.576 M 0.272 690 C 0.272 692.475, 0.467 693.487, 0.706 692.250 C 0.944 691.013, 0.944 688.987, 0.706 687.750 C 0.467 686.513, 0.272 687.525, 0.272 690" stroke="none" fill="#343434" fill-rule="evenodd"/><path d="M 350.500 55.599 C 309.762 58.744, 275.073 66.118, 240.295 79.028 C 223.069 85.422, 194.240 99.365, 178.501 108.915 C 87.054 164.399, 22.708 255.104, 2.046 357.657 C 0.036 367.635, -0 370.595, -0 525.797 C -0 701.471, -0.564 685.219, 6.502 713.191 C 26.046 790.561, 73.812 863.957, 137.500 914.479 C 194.072 959.356, 259.059 986.183, 331.685 994.638 C 362.356 998.209, 406.216 996.673, 438.315 990.903 C 517.249 976.714, 592.037 935.982, 646.800 877.354 C 693.742 827.099, 727.028 764.098, 740.503 700 C 741.948 693.125, 743.551 686.719, 744.065 685.764 C 745.267 683.531, 745.334 364.676, 744.133 365.418 C 743.656 365.713, 742.979 363.863, 742.629 361.308 C 740.411 345.129, 728.197 305.674, 718.541 283.500 C 690.690 219.542, 644.059 162.587, 586.965 122.796 C 535.842 87.166, 476.302 64.681, 414 57.476 C 401.058 55.979, 360.939 54.793, 350.500 55.599 M 381 163.130 C 344.112 166.378, 285.492 196.971, 246.233 233.464 C 231.680 246.991, 219.982 264.270, 218.447 274.505 C 217.345 281.854, 217.845 282.199, 225.688 279.492 C 238.242 275.161, 253.361 274.059, 273.144 276.034 C 285.899 277.307, 318.602 282.732, 321.978 284.135 C 324.361 285.125, 324.381 285.207, 322.495 286.263 C 319.085 288.171, 308.916 287.483, 297.624 284.580 C 286.668 281.764, 281.404 281.643, 276.811 284.101 C 274.152 285.524, 275.143 289.988, 279.581 296.573 C 282.783 301.324, 283.798 304, 282.398 304 C 282.067 304, 276.462 301.495, 269.943 298.432 C 261.860 294.636, 256.326 292.683, 252.545 292.292 C 247.108 291.731, 247 291.770, 247 294.290 C 247 296.272, 249.228 298.869, 256.750 305.654 C 272.056 319.461, 284.281 332.051, 288.683 338.540 C 301.753 357.807, 304.694 372.685, 300.139 396.500 C 298.982 402.550, 297.539 410.200, 296.934 413.500 C 293.652 431.382, 274.798 449.797, 252 457.385 C 231.158 464.323, 210.803 462.396, 195.264 452.016 C 187.347 446.727, 185.534 444.602, 177.500 431.188 C 173.650 424.759, 169.874 419.500, 169.109 419.500 C 168.286 419.500, 165.367 424.815, 161.970 432.500 C 145.894 468.863, 143.086 488.110, 144.905 549.500 C 146.647 608.335, 146.859 612.835, 148.477 625.500 C 158.492 703.863, 194.644 759.925, 260.825 799.727 C 281.952 812.432, 314.541 827.138, 326.071 829.169 C 336.772 831.054, 345.273 827.370, 350.978 818.374 C 352.500 815.974, 355.431 809.516, 357.491 804.023 C 362.019 791.953, 364.772 788.504, 369.180 789.386 C 370.865 789.723, 375.106 792.041, 378.604 794.537 C 388.185 801.374, 394.461 803.979, 401.382 803.990 C 406.977 804, 407.471 803.792, 411.530 799.733 C 417.416 793.847, 418.726 788.776, 416.593 780.133 C 414.721 772.550, 412.077 767.771, 404.470 758.223 C 397.999 750.101, 388.582 741.835, 381.998 738.499 C 379.462 737.214, 370.694 733.842, 362.513 731.005 C 340.069 723.221, 332.625 718.983, 327.860 711.274 L 325.609 707.632 329.555 704.566 C 331.725 702.880, 335.863 699.206, 338.750 696.402 C 343.168 692.112, 344 690.733, 344 687.703 C 344 680.718, 337.144 677.738, 311.148 673.426 C 271.494 666.848, 244.176 651.097, 223.450 622.858 C 217.380 614.588, 216.805 614.093, 212.522 613.451 C 208 612.773, 208 612.773, 208 608.288 C 208 602.529, 210.494 597.313, 214.151 595.422 C 217.652 593.611, 221.263 594.411, 232.112 599.400 C 236.176 601.268, 243.550 604.253, 248.500 606.032 C 256.937 609.065, 258.345 609.269, 271 609.299 C 278.425 609.316, 290.350 609.166, 297.500 608.964 C 307.020 608.696, 313.311 609.089, 321 610.433 C 345.817 614.769, 373.996 609.419, 386.357 598.025 C 392.357 592.495, 394.504 586.808, 394.485 576.500 C 394.449 556.721, 384.744 545.496, 364 541.239 C 356.014 539.601, 350.225 539.974, 328 543.559 C 316.761 545.371, 308.742 544.859, 295.705 541.495 C 278.683 537.102, 248.863 531.804, 245.067 532.498 C 239.201 533.569, 233.622 537.511, 227.788 544.705 C 220.833 553.281, 217.787 556.317, 211.339 561.102 C 207.650 563.839, 205.435 566.501, 203.575 570.432 C 199.879 578.245, 194 599.314, 194 604.747 C 194 607.269, 193.809 609.142, 193.575 608.908 C 193.341 608.674, 192.200 603.762, 191.039 597.991 C 186.992 577.877, 187.315 563.177, 192.018 553.462 C 194.375 548.593, 198.051 544.620, 210.925 533.024 C 221.907 523.133, 227.059 515.703, 230.509 504.782 C 231.877 500.451, 233.650 495.645, 234.447 494.102 C 235.910 491.273, 242.396 485, 243.859 485 C 244.292 485, 243.550 488.263, 242.209 492.250 C 239.191 501.221, 239.622 509.179, 243.604 518.052 C 246.085 523.580, 246.507 524, 249.582 524 C 252.207 524, 253.162 523.432, 254.202 521.250 C 256.019 517.441, 259.392 517.325, 274.755 520.542 C 291.695 524.090, 311.683 524.946, 321 522.523 C 338.117 518.071, 349.529 506.297, 353.006 489.500 C 355.483 477.534, 352.231 461.208, 345.392 451.278 C 341.737 445.972, 341.707 445.850, 343.587 444.014 C 344.639 442.987, 348.158 441.091, 351.406 439.800 C 354.654 438.509, 357.769 436.729, 358.326 435.844 C 359.831 433.459, 357.688 429.145, 351.378 421.860 C 344.030 413.374, 341.506 407.784, 337.388 390.877 C 335.463 382.970, 332.588 372.412, 331 367.415 C 326.109 352.023, 326.053 338.731, 330.834 328.155 L 332.486 324.500 332.759 329 C 333.262 337.281, 335.033 347.164, 336.535 350.067 C 338.121 353.136, 341.839 357, 343.203 357 C 344.876 357, 348.084 350.208, 351.623 339.172 C 357.142 321.965, 364.428 312.482, 379.681 302.656 C 390.308 295.810, 393.625 294.388, 418.482 286.027 C 431.291 281.718, 442.723 277.684, 443.886 277.061 C 446.042 275.907, 446.749 271.726, 445.200 269.289 C 441.208 263.007, 418.972 263.846, 388.947 271.412 C 381.551 273.275, 375.334 274.641, 375.131 274.448 C 374.928 274.254, 383.478 269.822, 394.131 264.599 C 404.784 259.377, 415.562 253.555, 418.083 251.663 C 426.616 245.258, 429.362 234.923, 429.417 209 C 429.451 193.110, 429.247 190.981, 427.195 185.855 C 419.981 167.835, 405.950 160.933, 381 163.130 M 80.218 271.639 C 74.968 274.265, 69.447 283.813, 64.688 298.500 C 56.222 324.621, 56.492 338.957, 65.600 346.953 C 68.530 349.526, 69.881 349.997, 74.285 349.978 C 80.168 349.953, 84.599 348.183, 93.965 342.112 C 101.555 337.193, 101.965 336.666, 101.985 331.785 C 101.996 329.013, 101.462 327.782, 99.877 326.934 C 98.081 325.973, 96.316 326.517, 88.401 330.472 C 83.232 333.055, 78.031 335.001, 76.774 334.823 C 74.695 334.528, 74.516 334.027, 74.692 329 C 75.048 318.797, 84.284 292.261, 87.148 293.216 C 87.792 293.431, 89.721 296.296, 91.435 299.584 C 96.006 308.352, 98.552 311.560, 102.381 313.377 C 107.801 315.949, 109.003 315.562, 108.983 311.250 C 108.955 305.220, 106.362 294.648, 103.551 289.100 C 100.374 282.830, 89.428 271.245, 86 270.524 C 84.625 270.235, 82.023 270.737, 80.218 271.639 M 418.500 312.346 C 405.983 316.491, 398.726 323.787, 400.417 330.524 C 401.073 333.141, 409.073 337.426, 419.110 340.538 C 424.720 342.277, 424.720 342.277, 430.045 339.389 C 436.907 335.665, 445.925 327.425, 447.647 323.302 C 449.351 319.223, 448.076 316.069, 443.665 313.455 C 439.617 311.056, 424.417 310.386, 418.500 312.346 M 196 320.702 C 193.175 321.726, 187.822 327.499, 185.525 332 C 180.544 341.759, 176.950 357.889, 175.444 377.250 C 174.763 386, 174.763 386, 177.297 386 C 179.009 386, 181.076 384.623, 183.666 381.756 C 191.671 372.895, 197.035 368.023, 201.029 365.985 C 208.157 362.349, 219.594 360.075, 238.870 358.461 C 258.928 356.782, 261.049 356.450, 265.250 354.334 C 270.706 351.585, 267.983 342.917, 259.783 336.936 C 250.822 330.400, 236.488 324.628, 221.560 321.544 C 214.398 320.065, 199.144 319.562, 196 320.702 M 121 338.403 C 121 341.655, 123.871 345.554, 132.158 353.556 C 146.127 367.046, 158.452 375.513, 163.118 374.826 C 167.609 374.165, 169.392 362.662, 166.120 355.459 C 161.798 345.944, 147.224 338.923, 128.510 337.341 C 121.865 336.780, 121 336.902, 121 338.403 M 419.059 364.172 C 413.396 367.140, 410.914 370.586, 410.260 376.386 C 409.748 380.924, 409.787 381, 412.620 381 C 414.204 381, 420.900 380.133, 427.500 379.074 C 434.100 378.015, 442.538 376.838, 446.250 376.458 C 453.621 375.703, 454.281 374.898, 450.976 370.697 C 447.625 366.437, 439.158 362.927, 430.847 362.353 C 424.494 361.913, 422.899 362.160, 419.059 364.172 M 0.488 526 C 0.488 614.275, 0.606 650.388, 0.750 606.250 C 0.894 562.113, 0.894 489.888, 0.750 445.750 C 0.606 401.613, 0.488 437.725, 0.488 526 M 223.402 374.987 C 206.308 377.528, 193.405 386.591, 186.685 400.777 C 183.734 407.006, 183.500 408.272, 183.500 418 C 183.500 427.476, 183.773 429.056, 186.300 434.203 C 190.335 442.419, 197.458 448.474, 206.218 451.135 C 215.107 453.835, 228.805 453.342, 239.801 449.927 C 246.941 447.710, 247.095 447.592, 246.801 444.580 L 246.500 441.500 235.500 440.874 C 229.450 440.530, 223.150 439.910, 221.500 439.497 C 216.245 438.180, 207.407 433.002, 203.390 428.884 C 199.503 424.902, 199.500 424.891, 199.529 416.699 C 199.554 409.817, 199.980 407.697, 202.186 403.500 C 208.418 391.640, 216.849 388.498, 234.500 391.457 C 247.179 393.582, 250.712 393.484, 251.505 390.984 C 252.467 387.955, 250.235 382.375, 246.959 379.619 C 241.983 375.432, 232.693 373.605, 223.402 374.987 M 404.314 390.950 C 396.069 395.977, 397.630 406.311, 407.060 409.136 C 409.234 409.788, 411.244 410.089, 411.527 409.806 C 411.810 409.523, 411.562 407.058, 410.977 404.327 C 410.234 400.863, 410.228 398.531, 410.956 396.616 C 411.530 395.106, 412 392.774, 412 391.435 C 412 388.361, 408.883 388.164, 404.314 390.950 M 419.500 393.945 C 416.562 395.148, 414.313 398.072, 413.545 401.691 C 412.879 404.825, 412.960 404.911, 417.976 406.400 C 426.425 408.909, 430.969 405.168, 428.046 398.110 C 427.132 395.904, 423.038 392.647, 421.703 393.063 C 421.591 393.098, 420.600 393.495, 419.500 393.945 M 207.314 403.950 C 203.944 406.005, 202.330 408.363, 200.914 413.299 C 198.908 420.293, 206.782 429.117, 216.424 430.681 C 219.579 431.193, 220 431.013, 220 429.152 C 220 427.991, 219.033 424.095, 217.850 420.493 C 216.018 414.911, 215.870 413.377, 216.850 410.106 C 218.905 403.246, 218.506 401.999, 214.250 402.004 C 212.188 402.006, 209.066 402.882, 207.314 403.950 M 221.923 411.923 C 218.608 415.238, 218.358 416.859, 220.518 421.035 C 224.561 428.853, 234 424.337, 234 414.585 C 234 408.427, 226.969 406.877, 221.923 411.923 M 440.500 419.022 C 428.044 422.259, 420.534 422.672, 413.409 420.511 C 407.284 418.653, 407 418.654, 407 420.535 C 407 424.854, 416.153 432.183, 423.061 433.395 C 430.704 434.736, 444.215 430.262, 451.296 424.045 C 455.203 420.614, 456.058 417.620, 453.418 416.607 C 452.548 416.273, 451.761 416.037, 451.668 416.081 C 451.576 416.126, 446.550 417.449, 440.500 419.022 M 491.442 424.885 C 477.827 430.523, 464.695 435.128, 452.703 438.469 C 449.514 439.357, 446.669 440.699, 446.380 441.451 C 444.701 445.827, 457.301 458.067, 469.925 464.324 C 477.626 468.142, 479.014 468.500, 486.101 468.500 C 492.366 468.500, 494.395 468.103, 496.677 466.429 C 499.912 464.056, 503.514 457.493, 505.070 451.135 C 505.740 448.398, 507.386 445.602, 509.483 443.635 C 517.953 435.694, 521.379 425.379, 517 421 C 513.409 417.409, 507.221 418.350, 491.442 424.885 M 619.624 455.195 C 619.324 458.663, 618.828 469.375, 618.523 479 C 617.114 523.501, 614.575 532.537, 597.025 555.522 C 592.061 562.023, 588 567.915, 588 568.614 C 588 569.314, 593.519 572.586, 600.265 575.885 C 614.601 582.896, 622.005 589.030, 629.873 600.410 C 655.436 637.388, 653.890 687.282, 625.421 744.140 C 610.581 773.779, 586.842 807.693, 565.291 830.047 C 551.835 844.004, 543.631 850.507, 532.500 856.037 C 522.648 860.932, 513.882 863.192, 493.952 865.974 C 469.560 869.380, 454.880 873.099, 440.177 879.601 C 435.738 881.564, 434.908 882.331, 435.177 884.226 C 435.734 888.149, 441.412 889.259, 458 888.690 C 475.101 888.104, 492.086 885.327, 526.493 877.491 C 564.927 868.739, 573.024 865.396, 583.082 854.126 C 593.217 842.771, 628.809 787.973, 650.717 749.997 C 681.253 697.063, 691.557 658.035, 682.156 630.913 C 678.650 620.796, 665.882 601.997, 643.773 574.400 C 633.473 561.544, 633.094 560.900, 634.262 558.255 C 635.086 556.388, 635.455 549.378, 635.409 536.500 C 635.334 515.909, 632.967 493.974, 628.349 471.089 C 624.062 449.838, 620.631 443.588, 619.624 455.195 M 454 506.497 C 454 510.055, 460.104 516.378, 468.157 521.162 C 471.912 523.394, 482.356 528.259, 491.365 531.974 C 515.124 541.772, 518.079 544.178, 526.995 561 C 530.351 567.332, 532.010 569.500, 533.500 569.500 C 535.210 569.500, 535.544 568.732, 535.804 564.207 C 536.166 557.897, 533.390 551.103, 526.510 541.462 C 518.060 529.621, 514.052 527.301, 488.500 519.464 C 474.665 515.221, 472.915 514.405, 464.782 508.419 C 457.838 503.307, 454 502.623, 454 506.497 M 129.650 509.109 C 121.547 510.369, 114.741 514.417, 107.305 522.399 C 96.253 534.264, 87.505 553.732, 83.444 575.500 C 81.042 588.374, 81.878 609.295, 85.459 625.886 C 93.559 663.422, 117.214 726.143, 143.028 778.530 C 160.473 813.931, 177.338 834.816, 200.904 850.200 C 210.137 856.228, 213.342 856.391, 213.804 850.858 C 214.649 840.733, 197.984 810.127, 153.987 741 C 130.234 703.679, 131.685 706.256, 125.044 689.610 C 114.672 663.613, 107.253 639.359, 102.832 617 C 99.501 600.149, 99.520 577.388, 102.875 567.500 C 106.680 556.284, 112.679 545.650, 122.248 533.156 C 133.465 518.511, 137.940 510.106, 135.250 508.736 C 134.838 508.526, 132.318 508.694, 129.650 509.109 M 424.500 634.108 C 389.846 643.327, 374.304 645.500, 343 645.500 C 315.256 645.500, 310.983 645.095, 272.649 638.832 C 249.983 635.129, 247.660 634.912, 246.216 636.355 C 244.773 637.799, 244.804 638.126, 246.567 640.077 C 250.743 644.698, 267.442 651.254, 284.394 654.926 C 315.865 661.745, 358.561 661.755, 392.361 654.952 C 408.951 651.613, 416.919 649.051, 428 643.495 C 440.481 637.237, 443.579 634.952, 442.698 632.656 C 441.798 630.310, 437.483 630.654, 424.500 634.108" stroke="none" fill="#040404" fill-rule="evenodd"/></svg>